<?xml version="1.0" encoding="UTF-8"?>
<svg id="Layer_1" xmlns="http://www.w3.org/2000/svg" viewBox="0 0 5000 3007.08">
  <defs>
    <style>
      .cls-1 {
        fill: #a8a39d;
      }

      .cls-2 {
        fill: #434343;
      }

      .cls-3 {
        fill: #b7dfed;
      }

      .cls-4, .cls-5, .cls-6 {
        fill: #fff;
      }

      .cls-7 {
        fill: #c3d7ea;
      }

      .cls-8 {
        fill: #54768b;
      }

      .cls-5 {
        opacity: .54;
      }

      .cls-9 {
        fill: #e03a38;
      }

      .cls-10 {
        fill: #60819b;
      }

      .cls-11 {
        fill: #6895ad;
      }

      .cls-12 {
        fill: #79a1b7;
      }

      .cls-13 {
        fill: #79a0b5;
      }

      .cls-14 {
        fill: #c1bebb;
      }

      .cls-15 {
        fill: #35c4b6;
      }

      .cls-16 {
        fill: #4d7e93;
      }

      .cls-17 {
        fill: #deedf3;
      }

      .cls-18 {
        fill: #aeaba7;
      }

      .cls-19 {
        fill: #e4e3e2;
      }

      .cls-20 {
        fill: #acc4d7;
      }

      .cls-21 {
        fill: #91b1c6;
      }

      .cls-22 {
        fill: #d7e5f5;
      }

      .cls-23 {
        fill: #c8c1b7;
      }

      .cls-24 {
        fill: #dad8d5;
      }

      .cls-25 {
        fill: #d3e3ea;
      }

      .cls-26 {
        fill: #1aada9;
      }

      .cls-27 {
        fill: #44423f;
      }

      .cls-6 {
        opacity: .61;
      }

      .cls-28 {
        fill: #5b5a58;
      }

      .cls-29 {
        fill: #e3e9ee;
      }

      .cls-30 {
        fill: #8db1c9;
      }

      .cls-31 {
        fill: #65d1c9;
      }
    </style>
  </defs>
  <rect class="cls-4" x="0" width="5000" height="3007.08"/>
  <ellipse class="cls-25" cx="3000.36" cy="2368.32" rx="1492.7" ry="39.92"/>
  <g>
    <rect class="cls-7" x="3071.72" y="506.22" width="23.98" height="1718.57"/>
    <g>
      <rect class="cls-20" x="2848.62" y="2175.54" width="470.11" height="49.24" rx="10.77" ry="10.77"/>
      <rect class="cls-20" x="2848.6" y="2192.01" width="50.28" height="89.32"/>
      <rect class="cls-20" x="3268.47" y="2196" width="50.28" height="89.32"/>
      <g>
        <path class="cls-28" d="M2891.78,2292.31h-36.09v72.19h36.09c19.93,0,36.09-16.16,36.09-36.1s-16.16-36.09-36.09-36.09Z"/>
        <circle class="cls-27" cx="2855.69" cy="2328.4" r="36.09"/>
      </g>
      <rect class="cls-27" x="2863.19" y="2281.33" width="22.46" height="10.98"/>
      <g>
        <path class="cls-28" d="M3311.66,2296.3h-36.09v72.19h36.09c19.93,0,36.1-16.16,36.1-36.1s-16.16-36.09-36.1-36.09Z"/>
        <circle class="cls-27" cx="3275.56" cy="2332.4" r="36.09"/>
      </g>
      <rect class="cls-20" x="3283.07" y="2285.32" width="22.46" height="10.98"/>
    </g>
    <path class="cls-22" d="M2903.25,435.89c-4.91,0-9.56,1.14-13.69,3.16-10.29,5.02-17.41,15.54-17.54,27.73h0v29.78c0,8.83-7.22,16.06-16.06,16.06h-6.25c-8.83,0-16.06-7.22-16.06-16.06v-25.68h-.13c-.59-2.83-3.12-4.98-6.12-4.98h-4.9c-3,0-5.53,2.15-6.12,4.98h-.13v27.1c0,16.88,13.8,30.69,30.68,30.69h11.94c16.88,0,30.69-13.81,30.69-30.69v-30.83c0-8.63,8.41-15.62,24.43-15.62h205.08v-15.64h-215.83Z"/>
    <path class="cls-22" d="M3258.1,435.89c4.91,0,9.56,1.14,13.69,3.16,10.29,5.02,17.41,15.54,17.54,27.73h0v29.78c0,8.83,7.22,16.06,16.06,16.06h6.25c8.83,0,16.06-7.22,16.06-16.06v-25.68h.13c.59-2.83,3.12-4.98,6.12-4.98h4.9c3,0,5.53,2.15,6.12,4.98h.13v27.1c0,16.88-13.8,30.69-30.68,30.69h-11.94c-16.88,0-30.69-13.81-30.69-30.69v-30.83c0-8.63-8.41-15.62-24.43-15.62h-205.08v-15.64h215.83Z"/>
    <rect class="cls-20" x="3066.09" y="389.21" width="35.16" height="134.39" rx="4.69" ry="4.69"/>
    <g>
      <path class="cls-29" d="M2918.3,540.03v-10.43c0-7.67-3.14-14.64-8.2-19.68-2.93-2.93-6.48-5.21-10.45-6.61-2.89-1.03-5.99-1.59-9.22-1.59h-81.26c-.88,0-1.77.05-2.64.13h-.01c-14.11,1.34-25.23,13.31-25.23,27.74v10.43c-16.92,2.11-30.13,16.63-30.13,34.1v216.15c0,18.91,15.46,34.37,34.36,34.37h128.55c18.9,0,34.36-15.46,34.36-34.37v-216.15c0-17.47-13.21-31.99-30.13-34.1ZM2816.88,523.68c.68-1.46,1.63-2.78,2.76-3.92,2.51-2.52,6-4.09,9.84-4.09h40.62c7.31,0,13.35,5.7,13.88,12.88,0,.05.01.09.01.14.02.29.04.6.04.91,0,3.83-1.57,7.31-4.09,9.85-2.51,2.52-6,4.09-9.84,4.09h-40.62c-7.66,0-13.93-6.28-13.93-13.94,0-2.08.45-4.03,1.29-5.82.01-.04.04-.07.05-.11Z"/>
      <path class="cls-5" d="M2932.39,593.41v181.01c0,15.83-12.94,28.78-28.77,28.78h-107.65c-15.83,0-28.78-12.96-28.78-28.78v-181.01c0-15.83,12.96-28.78,28.78-28.78h107.65c15.83,0,28.77,12.96,28.77,28.78Z"/>
      <path class="cls-17" d="M2932.39,650.63v123.79c0,15.83-12.94,28.78-28.77,28.78h-107.65c-15.83,0-28.78-12.96-28.78-28.78v-146.63c18.86-3.81,45.26-3.08,77.24,13.68,30.03,15.73,61.93,14.87,87.97,9.16Z"/>
      <path class="cls-3" d="M2932.39,650.63v123.79c0,15.83-12.94,28.78-28.77,28.78h-107.65c-15.83,0-28.78-12.96-28.78-28.78v-101.47c40.82,7.32,126.5,16.85,165.2-22.32Z"/>
      <rect class="cls-6" x="2781.89" y="609.85" width="24.3" height="148.13" rx="10.83" ry="10.83"/>
    </g>
    <rect class="cls-25" x="2846.7" y="753.58" width="7.32" height="644.43"/>
    <path class="cls-22" d="M2877.03,522.65c-.41-5.6-5.12-10.05-10.83-10.05h-9.1c-.34.03-.69.04-1.04.04h-6.25c-.35,0-.7,0-1.04-.04-6.55-.42-12.05-4.8-14.13-10.75-.02-.04-.03-.08-.04-.12-.56-1.61-.86-3.35-.86-5.14v-25.69h-.13c-.6-2.83-3.12-4.98-6.12-4.98h-4.9c-3,0-5.53,2.14-6.12,4.98h-.13v27.09c0,1.31.07,2.58.25,3.84,0,.04,0,.08,0,.12.85,6.51,3.74,12.41,8.04,16.98.02,0,.03.03.04.04,5.6,5.97,13.56,9.72,22.35,9.72h11.94c6.73,0,12.98-2.2,18.05-5.92,0,0,0,0,0,0,0-.04,0-.07,0-.11Z"/>
  </g>
  <g>
    <path class="cls-21" d="M4281.98,1364.29h-723.97c-116.09,0-211.08,72.97-211.08,162.14v357.12c0,4.13,4.4,7.5,9.77,7.5h1126.59c5.37,0,9.77-3.38,9.77-7.5v-357.12c0-89.18-94.99-162.14-211.08-162.14ZM4219.37,1446.1c0-12.41,13.22-22.57,29.38-22.57h17.82c1.55,0,3.09.1,4.59.28,67.31,3.85,120.85,47.36,120.85,100.02v43.48c0,12.42-13.23,22.57-29.39,22.57h-113.87c-16.16,0-29.38-10.15-29.38-22.57v-121.2ZM3739.86,1445.67c0-12.18,12.97-22.14,28.82-22.14h302.62c15.85,0,28.82,9.96,28.82,22.14v49.36c0,12.18-12.97,22.13-28.82,22.13h-302.62c-15.85,0-28.82-9.96-28.82-22.13v-49.36ZM3447.97,1523.83c0-52.66,53.53-96.17,120.85-100.02,1.5-.18,3.04-.28,4.59-.28h17.82c16.16,0,29.38,10.16,29.38,22.57v121.2c0,12.42-13.22,22.57-29.38,22.57h-113.87c-16.16,0-29.39-10.15-29.39-22.57v-43.48Z"/>
    <path class="cls-20" d="M4248.41,1364.29h-723.97c-116.09,0-211.08,72.97-211.08,162.14v357.12c0,4.13,4.4,7.5,9.77,7.5h1126.59c5.37,0,9.77-3.38,9.77-7.5v-357.12c0-89.18-94.99-162.14-211.08-162.14ZM4185.81,1446.1c0-12.41,13.22-22.57,29.38-22.57h17.82c1.55,0,3.09.1,4.59.28,67.31,3.85,120.85,47.36,120.85,100.02v43.48c0,12.42-13.23,22.57-29.39,22.57h-113.87c-16.16,0-29.38-10.15-29.38-22.57v-121.2ZM3706.3,1445.67c0-12.18,12.97-22.14,28.82-22.14h302.62c15.85,0,28.82,9.96,28.82,22.14v49.36c0,12.18-12.97,22.13-28.82,22.13h-302.62c-15.85,0-28.82-9.96-28.82-22.13v-49.36ZM3414.41,1523.83c0-52.66,53.53-96.17,120.85-100.02,1.5-.18,3.04-.28,4.59-.28h17.82c16.16,0,29.38,10.16,29.38,22.57v121.2c0,12.42-13.22,22.57-29.38,22.57h-113.87c-16.16,0-29.39-10.15-29.39-22.57v-43.48Z"/>
    <path class="cls-8" d="M4318.8,1616.63h-864.74c-23.38,0-42.51,14.7-42.51,32.66v85.26c0,17.96,19.13,32.66,42.51,32.66h864.74c23.38,0,42.51-14.7,42.51-32.66v-85.26c0-17.96-19.13-32.66-42.51-32.66Z"/>
    <rect class="cls-12" x="3275.56" y="1943.34" width="98.29" height="275.42" rx="22.09" ry="22.09"/>
    <g>
      <path class="cls-12" d="M1744.92,2208.04h53.69c2.9,0,5.28,2.38,5.28,5.28v36.63c19.34,6.47,33.29,24.73,33.29,46.25s-14.73,40.8-34.92,46.77c-4.39,1.3-9.04,2-13.85,2-26.93,0-48.77-21.83-48.77-48.77,0-.77.02-1.53.06-2.29-.04-.76-.06-1.52-.06-2.29v-78.3c0-2.9,2.38-5.28,5.28-5.28Z"/>
      <path class="cls-28" d="M1719.86,2299.29c0-29.98,18.75-55.58,45.16-65.72v-4.66h25.23c38.87,0,70.39,31.51,70.39,70.39s-31.51,70.39-70.39,70.39h-25.23v-4.66c-26.41-10.14-45.16-35.74-45.16-65.72Z"/>
      <circle class="cls-27" cx="1765.02" cy="2299.29" r="70.39" transform="translate(-345.52 312.41) rotate(-9.22)"/>
      <path class="cls-12" d="M1718.95,2208.04h53.69c2.9,0,5.28,2.38,5.28,5.28v36.63c19.34,6.47,33.28,24.73,33.28,46.25s-14.73,40.8-34.92,46.77c-4.39,1.3-9.04,2-13.85,2-26.93,0-48.77-21.83-48.77-48.77,0-.77.02-1.53.06-2.29-.04-.76-.06-1.52-.06-2.29v-78.3c0-2.9,2.38-5.28,5.28-5.28Z"/>
      <rect class="cls-1" x="1713.67" y="2196.56" width="90.27" height="21.74" transform="translate(3517.61 4414.86) rotate(180)"/>
      <rect class="cls-19" x="1777.92" y="2196.56" width="26.02" height="21.74" transform="translate(3581.86 4414.86) rotate(180)"/>
    </g>
    <path class="cls-26" d="M2730.38,1525.66v181.45c-34.86,26.26-64.56,56.01-79.72,87.95-53.97,113.61-155.73,117.58-155.73,117.58h-656.41c-117.23,0-118.66-94.71-118.66-94.71v-292.27c0-119.63,198.27-127.64,198.27-127.64h614s198.26,8.01,198.26,127.64Z"/>
    <path class="cls-12" d="M1727.29,2132.51h1749.69c7.57,0,13.71,6.14,13.71,13.71v58.89c0,7.57-6.14,13.71-13.71,13.71h-1749.69c-7.57,0-13.71-6.14-13.71-13.71v-58.89c0-7.57,6.14-13.71,13.71-13.71Z"/>
    <g>
      <path class="cls-12" d="M3432.75,2208.04h53.69c2.9,0,5.28,2.38,5.28,5.28v36.63c19.34,6.47,33.29,24.73,33.29,46.25s-14.73,40.8-34.92,46.77c-4.39,1.3-9.04,2-13.85,2-26.93,0-48.77-21.83-48.77-48.77,0-.77.02-1.53.06-2.29-.04-.76-.06-1.52-.06-2.29v-78.3c0-2.9,2.38-5.28,5.28-5.28Z"/>
      <path class="cls-28" d="M3407.69,2299.29c0-29.98,18.75-55.58,45.16-65.72v-4.66h25.23c38.87,0,70.39,31.51,70.39,70.39s-31.51,70.39-70.39,70.39h-25.23v-4.66c-26.41-10.14-45.16-35.74-45.16-65.72Z"/>
      <circle class="cls-27" cx="3452.84" cy="2299.29" r="70.39" transform="translate(-323.72 582.77) rotate(-9.22)"/>
      <path class="cls-12" d="M3406.78,2208.04h53.69c2.9,0,5.28,2.38,5.28,5.28v36.63c19.34,6.47,33.29,24.73,33.29,46.25s-14.73,40.8-34.92,46.77c-4.39,1.3-9.04,2-13.85,2-26.93,0-48.77-21.83-48.77-48.77,0-.77.02-1.53.06-2.29-.04-.76-.06-1.52-.06-2.29v-78.3c0-2.9,2.38-5.28,5.28-5.28Z"/>
      <rect class="cls-1" x="3401.5" y="2196.56" width="90.27" height="21.74" transform="translate(6893.26 4414.86) rotate(180)"/>
      <rect class="cls-23" x="3465.75" y="2196.56" width="26.02" height="21.74" transform="translate(6957.51 4414.86) rotate(180)"/>
    </g>
    <rect class="cls-12" x="1814.72" y="1943.41" width="98.29" height="275.42" rx="22.09" ry="22.09"/>
    <path class="cls-21" d="M4493.06,1782.16v100.23c0,4.77-7.06,8.68-15.68,8.68h-1807.91c-8.62,0-15.68-3.9-15.68-8.68v-100.23c0-4.77,7.06-8.68,15.68-8.68h1807.91c8.62,0,15.68,3.9,15.68,8.68Z"/>
    <path class="cls-7" d="M3868.63,1720.9l-14.51-10.79c-3.86-2.87-4.67-8.39-1.8-12.25l346.56-465.71c2.87-3.86,8.39-4.67,12.25-1.8l14.51,10.79c3.86,2.87,4.67,8.39,1.8,12.25l-346.56,465.71c-2.87,3.86-8.39,4.67-12.25,1.8Z"/>
    <path class="cls-21" d="M4398.91,1733.5v39.98h-1711.54v-52.15h1699.38c6.69,0,12.16,5.47,12.16,12.17Z"/>
    <path class="cls-20" d="M2586.32,1891.06v56.92c0,22.96-18.79,41.75-41.75,41.75h-921.52c-22.96,0-41.75-18.79-41.75-41.75v-56.92h1005.02Z"/>
    <path class="cls-14" d="M4388.93,1891.06v56.92c0,22.96-18.79,41.75-41.75,41.75h-921.52c-22.96,0-41.75-18.79-41.75-41.75v-56.92h1005.02Z"/>
    <path class="cls-30" d="M4388.93,1891.06v56.92c0,22.96-18.79,41.75-41.75,41.75h-1802.61c22.96,0,41.75-18.79,41.75-41.75v-56.92h1802.61Z"/>
    <polygon class="cls-7" points="3876.24 1657.99 2687.36 1657.99 2687.36 1721.33 3878.44 1721.33 3876.24 1657.99"/>
    <path class="cls-31" d="M4081.6,1127.75l-554.54-.83c-1.82-.1-3.68.22-5.38.99h0c-2.81.49-5.45,2.01-7.27,4.45l-8.02,10.78-189.65,254.86h51c-3.37,1.45-5.19,2.26-5.19,2.26l-80.94,183.87h511.03l33.13-44.52,303.05-407.26c2.23-2.98,5.64-4.57,9.12-4.62h-56.31Z"/>
    <rect class="cls-7" x="4185.81" y="1943.22" width="98.29" height="275.42" rx="22.09" ry="22.09"/>
    <path class="cls-15" d="M4220.15,1186.03l-75.27-56.02c-2.09-1.55-4.54-2.28-6.96-2.25-3.48.05-6.89,1.64-9.12,4.62l-336.18,451.77h-1148.43c-8.79,0-15.98,6.79-15.98,15.1v78.26c0,8.3,7.19,15.1,15.98,15.1h1205.49c.36,0,.72-.03,1.08-.05,3.56.29,7.18-1.06,9.64-3.9,1.71-1.47,3.1-3.27,4.01-5.31l358.12-481.24c3.77-5.07,2.71-12.31-2.36-16.08Z"/>
    <g>
      <g>
        <path class="cls-12" d="M4373.5,1785.37h21.56c5.6,0,10.18-5.56,10.18-12.36v-15.54c0-6.8-4.58-12.36-10.18-12.36h-21.56c5.6,0,10.18,5.56,10.18,12.36v15.54c0,6.8-4.58,12.36-10.18,12.36Z"/>
        <path class="cls-7" d="M3074.49,1757.48v15.54c0,6.79,4.58,12.36,10.17,12.36h1288.84c5.59,0,10.18-5.57,10.18-12.36v-15.54c0-6.79-4.58-12.35-10.18-12.35h-1288.84c-5.59,0-10.17,5.56-10.17,12.35Z"/>
      </g>
      <g>
        <path class="cls-12" d="M4373.5,2027.73h21.56c5.6,0,10.18-5.56,10.18-12.36v-15.54c0-6.8-4.58-12.36-10.18-12.36h-21.56c5.6,0,10.18,5.56,10.18,12.36v15.54c0,6.8-4.58,12.36-10.18,12.36Z"/>
        <path class="cls-7" d="M3074.49,1999.84v15.53c0,6.8,4.58,12.36,10.17,12.36h1288.84c5.59,0,10.18-5.56,10.18-12.36v-15.53c0-6.8-4.58-12.36-10.18-12.36h-1288.84c-5.59,0-10.17,5.56-10.17,12.36Z"/>
      </g>
      <rect class="cls-12" x="4256.74" y="1785.38" width="32.37" height="202.1"/>
      <rect class="cls-7" x="4246.55" y="1745.13" width="32.37" height="282.61" rx="11.87" ry="11.87" transform="translate(8525.47 3772.86) rotate(-180)"/>
      <rect class="cls-12" x="4041.24" y="1785.38" width="32.37" height="202.1"/>
      <rect class="cls-7" x="4031.05" y="1745.13" width="32.37" height="282.61" rx="11.87" ry="11.87" transform="translate(8094.47 3772.86) rotate(180)"/>
      <rect class="cls-12" x="3825.74" y="1785.38" width="32.37" height="202.1"/>
      <rect class="cls-7" x="3815.55" y="1745.13" width="32.37" height="282.61" rx="11.87" ry="11.87" transform="translate(7663.47 3772.86) rotate(180)"/>
      <rect class="cls-12" x="3610.24" y="1785.38" width="32.37" height="202.1"/>
      <rect class="cls-7" x="3600.05" y="1745.13" width="32.37" height="282.61" rx="11.87" ry="11.87" transform="translate(7232.47 3772.86) rotate(180)"/>
      <rect class="cls-12" x="3394.74" y="1785.38" width="32.37" height="202.1"/>
      <rect class="cls-7" x="3384.55" y="1745.13" width="32.37" height="282.61" rx="11.87" ry="11.87" transform="translate(6801.47 3772.86) rotate(-180)"/>
      <rect class="cls-12" x="3179.24" y="1785.38" width="32.37" height="202.1"/>
      <rect class="cls-7" x="3169.05" y="1745.13" width="32.37" height="282.61" rx="11.87" ry="11.87" transform="translate(6370.47 3772.86) rotate(180)"/>
    </g>
    <path class="cls-26" d="M3697.89,1525.66v292.27s-1.43,94.71-118.66,94.71h-656.41s-101.75-3.97-155.72-117.58c-15.17-31.94-44.87-61.69-79.73-87.96-89.13-67.17-211.99-111.56-211.99-111.56h-761.8s322.55-193.44,534.14-197.52h1251.91s198.26,8.01,198.26,127.64Z"/>
    <g>
      <path class="cls-20" d="M2476.28,1364.29h-723.97c-116.09,0-211.08,72.97-211.08,162.14v357.12c0,4.13,4.4,7.51,9.77,7.51h1126.59c5.37,0,9.77-3.38,9.77-7.51v-357.12c0-89.18-94.99-162.14-211.08-162.14ZM1814.92,1567.3c0,12.41-13.22,22.57-29.38,22.57h-113.87c-16.16,0-29.39-10.16-29.39-22.57v-43.48c0-52.65,53.53-96.16,120.85-100.01,1.5-.18,3.04-.29,4.59-.29h17.82c16.16,0,29.38,10.17,29.38,22.57v121.21ZM2294.43,1495.03c0,12.17-12.97,22.13-28.82,22.13h-302.62c-15.85,0-28.82-9.96-28.82-22.13v-49.37c0-12.17,12.97-22.14,28.82-22.14h302.62c15.85,0,28.82,9.97,28.82,22.14v49.37ZM2586.32,1567.3c0,12.41-13.23,22.57-29.39,22.57h-113.87c-16.16,0-29.38-10.16-29.38-22.57v-121.21c0-12.41,13.22-22.57,29.38-22.57h17.82c1.55,0,3.09.1,4.59.29,67.31,3.85,120.85,47.36,120.85,100.01v43.48Z"/>
      <path class="cls-7" d="M2442.71,1364.29h-723.97c-116.09,0-211.08,72.97-211.08,162.14v357.12c0,4.13,4.4,7.5,9.77,7.5h1126.59c5.37,0,9.77-3.38,9.77-7.5v-357.12c0-89.18-94.99-162.14-211.08-162.14ZM2380.11,1446.1c0-12.41,13.22-22.57,29.38-22.57h17.82c1.55,0,3.09.1,4.59.28,67.31,3.85,120.85,47.36,120.85,100.02v43.48c0,12.42-13.23,22.57-29.39,22.57h-113.87c-16.16,0-29.38-10.15-29.38-22.57v-121.2ZM1900.6,1445.67c0-12.18,12.97-22.14,28.82-22.14h302.62c15.85,0,28.82,9.96,28.82,22.14v49.36c0,12.18-12.97,22.13-28.82,22.13h-302.62c-15.85,0-28.82-9.96-28.82-22.13v-49.36ZM1608.71,1523.83c0-52.66,53.53-96.17,120.85-100.02,1.5-.18,3.04-.28,4.59-.28h17.82c16.16,0,29.38,10.16,29.38,22.57v121.2c0,12.42-13.22,22.57-29.38,22.57h-113.87c-16.16,0-29.39-10.15-29.39-22.57v-43.48Z"/>
      <path class="cls-10" d="M2513.1,1616.63h-864.74c-23.38,0-42.52,14.7-42.52,32.66v85.26c0,17.96,19.13,32.66,42.52,32.66h864.74c23.38,0,42.51-14.7,42.51-32.66v-85.26c0-17.96-19.13-32.66-42.51-32.66Z"/>
      <path class="cls-30" d="M2687.36,1796.81v86.75c0,4.13-4.4,7.5-9.77,7.5h-1126.59c-5.37,0-9.77-3.38-9.77-7.5v-86.75c0-4.13,4.4-7.51,9.77-7.51h1126.59c5.37,0,9.77,3.38,9.77,7.51Z"/>
      <path class="cls-20" d="M2653.79,1796.81v86.75c0,4.13-4.4,7.51-9.77,7.51h-1126.59c-5.37,0-9.77-3.38-9.77-7.51v-86.75c0-4.13,4.4-7.51,9.77-7.51h1126.59c5.37,0,9.77,3.38,9.77,7.51Z"/>
    </g>
    <g>
      <path class="cls-18" d="M4341.55,2207.91h53.69c2.9,0,5.28,2.38,5.28,5.28v36.63c19.34,6.47,33.29,24.73,33.29,46.25s-14.73,40.8-34.92,46.77c-4.39,1.3-9.04,2-13.85,2-26.93,0-48.77-21.83-48.77-48.77,0-.77.02-1.53.06-2.29-.04-.76-.06-1.52-.06-2.29v-78.3c0-2.9,2.38-5.28,5.28-5.28Z"/>
      <path class="cls-28" d="M4316.49,2299.17c0-29.98,18.75-55.58,45.16-65.72v-4.66h25.23c38.87,0,70.39,31.51,70.39,70.39s-31.51,70.39-70.39,70.39h-25.23v-4.66c-26.41-10.14-45.16-35.74-45.16-65.72Z"/>
      <circle class="cls-27" cx="4361.65" cy="2299.17" r="70.39"/>
      <path class="cls-7" d="M4315.58,2207.91h53.69c2.9,0,5.28,2.38,5.28,5.28v36.63c19.34,6.47,33.29,24.73,33.29,46.25s-14.73,40.8-34.92,46.77c-4.39,1.3-9.04,2-13.85,2-26.93,0-48.77-21.83-48.77-48.77,0-.77.02-1.53.06-2.29-.04-.76-.06-1.52-.06-2.29v-78.3c0-2.9,2.38-5.28,5.28-5.28Z"/>
      <rect class="cls-24" x="4310.3" y="2196.43" width="90.27" height="21.74" transform="translate(8710.86 4414.61) rotate(180)"/>
      <rect class="cls-19" x="4374.55" y="2196.43" width="26.02" height="21.74" transform="translate(8775.11 4414.61) rotate(180)"/>
    </g>
    <g>
      <path class="cls-12" d="M2655.27,2208.91h53.69c2.9,0,5.28,2.38,5.28,5.28v36.63c19.34,6.47,33.29,24.73,33.29,46.25s-14.73,40.8-34.92,46.77c-4.39,1.3-9.04,2-13.85,2-26.93,0-48.77-21.83-48.77-48.77,0-.77.02-1.53.06-2.29-.04-.76-.06-1.52-.06-2.29v-78.3c0-2.9,2.38-5.28,5.28-5.28Z"/>
      <path class="cls-28" d="M2630.21,2300.17c0-29.98,18.75-55.58,45.16-65.72v-4.66h25.23c38.87,0,70.39,31.51,70.39,70.39s-31.51,70.39-70.39,70.39h-25.23v-4.66c-26.41-10.14-45.16-35.74-45.16-65.72Z"/>
      <circle class="cls-27" cx="2675.37" cy="2300.17" r="70.39"/>
      <path class="cls-7" d="M2629.3,2208.91h53.69c2.9,0,5.28,2.38,5.28,5.28v36.63c19.34,6.47,33.29,24.73,33.29,46.25s-14.73,40.8-34.92,46.77c-4.39,1.3-9.04,2-13.85,2-26.93,0-48.77-21.83-48.77-48.77,0-.77.02-1.53.06-2.29-.04-.76-.06-1.52-.06-2.29v-78.3c0-2.9,2.38-5.28,5.28-5.28Z"/>
      <rect class="cls-24" x="2624.02" y="2197.43" width="90.27" height="21.74" transform="translate(5338.31 4416.61) rotate(180)"/>
      <rect class="cls-19" x="2688.27" y="2197.43" width="26.02" height="21.74" transform="translate(5402.56 4416.61) rotate(180)"/>
    </g>
    <rect class="cls-7" x="2623.82" y="2132.38" width="1777.12" height="86.32" rx="13.71" ry="13.71"/>
    <rect class="cls-7" x="2724.97" y="1943.28" width="98.29" height="275.42" rx="22.09" ry="22.09"/>
    <path class="cls-26" d="M3697.89,1525.66v181.45c-34.86,26.26-64.56,56.01-79.72,87.95-53.97,113.61-155.73,117.58-155.73,117.58h-656.41c-117.23,0-118.66-94.71-118.66-94.71v-292.27c0-119.63,198.27-127.64,198.27-127.64h614s198.26,8.01,198.26,127.64Z"/>
  </g>
  <ellipse class="cls-25" cx="892.96" cy="2377.04" rx="372.98" ry="31.2"/>
  <g>
    <path class="cls-13" d="M620.19,2270.18h-17.59c-27.1,0-49.07,21.97-49.07,49.07s21.97,49.07,49.07,49.07h0s17.59,0,17.59,0c27.1,0,49.07-21.97,49.07-49.07s-21.97-49.07-49.07-49.07Z"/>
    <path class="cls-13" d="M1021.05,2270.18h-17.59c-27.1,0-49.07,21.97-49.07,49.07s21.97,49.07,49.07,49.07h0s17.59,0,17.59,0c27.1,0,49.07-21.97,49.07-49.07s-21.97-49.07-49.07-49.07Z"/>
    <rect class="cls-30" x="587.91" y="1054.38" width="549.23" height="425.48" rx="22.04" ry="22.04"/>
    <g>
      <rect class="cls-7" x="658.96" y="1054.38" width="549.23" height="425.48" rx="22.04" ry="22.04"/>
      <rect class="cls-2" x="698.19" y="1103.49" width="470.77" height="327.24"/>
      <path class="cls-4" d="M860.85,1345.12c-.2,0-.41,0-.62-.03-2.94-.28-5.33-2.49-5.84-5.4l-25.7-148.71-28.89,78.4c-.95,2.57-3.4,4.28-6.14,4.28h-95.47c-3.62,0-6.55-2.93-6.55-6.55s2.93-6.55,6.55-6.55h90.91l35.75-97.02c1.02-2.78,3.79-4.53,6.74-4.26,2.95.27,5.35,2.49,5.86,5.4l25.75,148.98,36.32-96.84c.96-2.56,3.4-4.25,6.13-4.25h.06c2.75.02,5.19,1.76,6.11,4.35l15.51,43.63h241.92c3.62,0,6.55,2.93,6.55,6.55s-2.93,6.55-6.55,6.55h-246.54c-2.77,0-5.24-1.74-6.17-4.35l-11.06-31.09-38.5,102.65c-.96,2.57-3.42,4.25-6.13,4.25Z"/>
      <path class="cls-9" d="M1123.04,1340.49c-9.4-4.06-20-1.45-26.52,5.72-6.52-7.17-17.12-9.78-26.52-5.72-11.84,5.11-17.29,18.85-12.18,30.68.25.57.52,1.13.8,1.68,11.25,22.46,36.9,28.88,37.88,29.12,0,0,0,0,0,0,0,0,0,0,.01,0,0,0,.01,0,.01,0,0,0,0,0,0,0,.99-.24,26.63-6.66,37.88-29.12.29-.54.56-1.1.8-1.68,5.11-11.84-.35-25.57-12.18-30.68Z"/>
    </g>
    <rect class="cls-16" x="642.93" y="1479.86" width="393.31" height="36.53"/>
    <rect class="cls-11" x="743.83" y="1479.86" width="393.32" height="36.53"/>
    <path class="cls-11" d="M1123.88,1516.1h-607.42c-10.37,0-18.86,8.49-18.86,18.86v59.77c0,10.37,8.49,18.86,18.86,18.86h607.42c10.37,0,18.86-8.49,18.86-18.86v-59.77c0-10.37-8.49-18.86-18.86-18.86Z"/>
    <path class="cls-30" d="M1279.65,1516.1h-607.42c-10.37,0-18.86,8.49-18.86,18.86v59.77c0,10.37,8.49,18.86,18.86,18.86h607.42c10.37,0,18.86-8.49,18.86-18.86v-59.77c0-10.37-8.49-18.86-18.86-18.86Z"/>
    <g>
      <path class="cls-30" d="M788.94,2270.18h-17.59c-27.1,0-49.07,21.97-49.07,49.07s21.97,49.07,49.07,49.07h17.59c27.1,0,49.07-21.97,49.07-49.07s-21.97-49.07-49.07-49.07Z"/>
      <path class="cls-30" d="M1189.47,2270.18h-17.59c-27.1,0-49.07,21.97-49.07,49.07s21.97,49.07,49.07,49.07h17.59c27.1,0,49.07-21.97,49.07-49.07s-21.97-49.07-49.07-49.07Z"/>
    </g>
    <path class="cls-30" d="M1080.95,1613.58h-560.97v694.07c0,6.38,4.71,11.6,10.48,11.6h550.49c5.76,0,10.48-5.22,10.48-11.6v-694.07h-10.48Z"/>
    <path class="cls-7" d="M1255.46,1613.58h-560.97v694.07c0,6.38,4.71,11.6,10.48,11.6h550.49c5.76,0,10.48-5.22,10.48-11.6v-694.07h-10.48Z"/>
  </g>
</svg>